<svg xmlns="http://www.w3.org/2000/svg" width="809" height="350" fill="none"><path fill="#FA4616" d="M0 0h809v350H0z"/><path fill="#FCF6F5" d="m380.177 194.822-11.733-46.799h10.468l7.867 32.391h.133l11.335-32.391h9l11.334 32.391h.134l7.934-32.391h10.401l-11.736 46.799h-10.666l-11.869-31.284h-.131l-11.936 31.284zm60.08-46.799h9.866v15.515h.134c.872-1.605 2.597-2.881 4.615-3.745 1.872-.802 4.588-1.311 6.987-1.324 2.639-.013 6.289.666 8.866 2.001 2.621 1.423 4.602 3.336 5.934 5.735q2.133 3.735 2.133 8.405v20.209h-9.866v-18.877q-.001-4.133-2.468-6.404-2.468-2.267-6.735-2.268c-2.845 0-5.113.8-6.934 2.402q-2.667 2.4-2.666 6.27v18.877h-9.866zm41.971 29.131q0-4.202 1.599-7.67 1.6-3.468 4.367-5.903t6.366-3.769q3.6-1.333 7.602-1.335c2.668 0 5.345.457 7.767 1.367q3.635 1.369 6.335 3.801 2.699 2.435 4.267 5.869 1.566 3.435 1.567 7.637c0 2.801-.535 5.414-1.599 7.704q-1.6 3.436-4.334 5.869t-6.367 3.769a22 22 0 0 1-7.633 1.335c-2.666 0-5.279-.458-7.701-1.367q-3.635-1.368-6.334-3.836-2.7-2.466-4.3-5.904-1.6-3.434-1.599-7.57zm30.004 0q0-4.535-2.768-7.271-2.767-2.734-7.299-2.734-2.202.001-4.067.733c-1.246.49-2.313 1.166-3.201 2.036q-1.334 1.3-2.067 3.167t-.732 4.069.732 4.036a9.1 9.1 0 0 0 2.099 3.167 9.6 9.6 0 0 0 3.201 2.068q1.833.734 4.035.733c2.202-.001 2.82-.243 4.066-.733q1.866-.732 3.201-2.036 1.333-1.3 2.067-3.167.733-1.866.733-4.068m13.432-18.698h9.468v5.083h.134c.617-1.338 3.222-3.569 5.266-4.168a22 22 0 0 1 6.202-.901q3.998 0 7.335 1.468 3.33 1.47 5.765 4.002c1.626 1.691 2.888 3.667 3.801 5.936.913 2.268 1.365 4.692 1.365 7.271s-.455 5.135-1.365 7.404q-1.368 3.4-3.801 5.903-2.432 2.501-5.799 3.935-3.368 1.433-7.299 1.434-1.268 0-2.834-.233a20.5 20.5 0 0 1-3.068-.7q-1.501-.467-2.865-1.167-1.37-.7-2.301-1.634h-.134v17.743h-9.864v-51.376zm29.468 18.691q-.002-4.535-2.733-7.236-2.735-2.702-7.268-2.702-1.599.001-3.298.532a10.9 10.9 0 0 0-3.099 1.536 8.7 8.7 0 0 0-2.301 2.402c-.597.933-.902 2.001-.902 3.202v4.469q0 2.336 1.369 4.069a9 9 0 0 0 3.431 2.667q2.134 1.067 4.867 1.067 4.465 0 7.201-2.768 2.731-2.77 2.733-7.236zM262.011 140c-7.032 0-11.88 3.087-15.548 6.578 0 0-1.482 1.404-1.463 1.447l15.407 15.413 15.404-15.413c-2.917-4.018-8.417-8.025-13.8-8.025m38.043 0c-7.032 0-11.88 3.087-15.549 6.578 0 0-1.352 1.367-1.414 1.447l-19.043 19.054 15.383 15.389 34.423-34.443c-2.918-4.018-8.415-8.025-13.8-8.025m38.147 0c-7.032 0-11.88 3.087-15.548 6.578 0 0-1.41 1.377-1.463 1.447l-38.094 38.116 4.032 4.034c6.238 6.24 16.449 6.24 22.688 0l42.137-42.15h.048c-2.917-4.018-8.415-8.025-13.8-8.025"/></svg>
